<?xml version="1.0" encoding="UTF-8" standalone="no"?>
<svg xmlns:rdf="http://www.w3.org/1999/02/22-rdf-syntax-ns#" xmlns="http://www.w3.org/2000/svg" version="1.1" xmlns:cc="http://creativecommons.org/ns#" xmlns:dc="http://purl.org/dc/elements/1.1/" viewBox="0 0 128 128">
	<path style="color-rendering:auto;color:#000000;isolation:auto;mix-blend-mode:normal;shape-rendering:auto;solid-color:#000000;image-rendering:auto" d="m125 48.75c0-25.267-20.48-45.75-45.75-45.75h-30.5c-25.267 0-45.75 20.483-45.75 45.75v30.5c0 25.27 20.483 45.75 45.75 45.75h30.5c25.27 0 45.75-20.48 45.75-45.75z" fill-rule="evenodd" fill="#adade9"/>
	<path style="color-rendering:auto;color:#000000;isolation:auto;mix-blend-mode:normal;shape-rendering:auto;solid-color:#000000;image-rendering:auto" d="m48 0c-26.51 0-48 21.49-48 48v32c0 26.51 21.49 48 48 48h32c26.51 0 48-21.49 48-48v-32c0-26.51-21.49-48-48-48zm-8 8.8008v23.199h48v-23.199c18.26 3.706 32 19.848 32 39.199v32c0 19.351-13.743 35.493-32 39.199v-23.2h-48v23.2c-18.257-3.71-32-19.849-32-39.2v-32c0-19.351 13.743-35.493 32-39.199z" fill-rule="evenodd" fill="#000079"/>
	<g fill-rule="evenodd">
		<path style="color-rendering:auto;text-decoration-color:#000000;color:#000000;isolation:auto;mix-blend-mode:normal;shape-rendering:auto;solid-color:#000000;block-progression:tb;text-decoration-line:none;text-decoration-style:solid;image-rendering:auto;white-space:normal;text-indent:0;text-transform:none" d="m19.117 10.746c-0.4717-0.0096-0.94345 0.0015-1.4141 0.0332-3.765 0.254-7.446 1.828-10.271 4.653-5.6502 5.649-6.2904 14.729-1.3929 21.039l39.146 50.432 0.0039-0.0039c7.251 9.127 20.442 11.873 30.811 5.886 0.99704-0.57564 2.1712-1.3054 3.3867-2.3125l36.403-30.158c5.91-4.895 7.55-13.533 3.64-20.314-2.9364-5.086-8.3408-7.9846-13.895-7.9902-1.8512-0.0019-3.7192 0.31709-5.5176 0.98438l-31.889 11.83-39.66-30.785c-2.7603-2.1426-6.0516-3.2258-9.3535-3.293z" fill="#630e0e"/>
		<path style="color-rendering:auto;color:#000000;isolation:auto;mix-blend-mode:normal;shape-rendering:auto;solid-color:#000000;image-rendering:auto" d="m72 85.856c0.79767-0.46054 1.5646-0.94925 2.2824-1.5439l36.398-30.158c2.9485-2.4429 3.7937-6.7267 1.8148-10.154-1.9789-3.4275-6.1113-4.8374-9.7012-3.5054l-44.312 16.444c-0.874 0.324-1.68 0.744-2.478 1.205-7.653 4.418-10.275 14.203-5.856 21.856 4.418 7.653 14.203 10.275 21.856 5.856z" fill="#f00"/>
		<path style="color-rendering:auto;color:#000000;isolation:auto;mix-blend-mode:normal;shape-rendering:auto;solid-color:#000000;image-rendering:auto" d="m75.314 60.686c-0.423-0.422-0.857-0.823-1.318-1.181l-50.431-39.146c-3.105-2.411-7.618-2.129-10.477 0.729-2.858 2.859-3.1396 7.372-0.729 10.477l39.146 50.431c0.35794 0.46112 0.75898 0.89541 1.1813 1.3177 6.2484 6.2484 16.379 6.2484 22.627 0 6.2484-6.2484 6.2484-16.379 0.000001-22.627z" fill="#f00"/>
	</g>
</svg>
