<svg version="1.1" viewBox="0 0 32 32" xmlns="http://www.w3.org/2000/svg">
	<g transform="translate(0 -848.7)">
		<g transform="matrix(1.2011 0 0 .90545 -76.785 86.803)" stroke-width=".95889">
			<path d="m75.668 862.78h6.0725l-1.4636 9.5645-6e-3 0.0384h-6.9557zm4.1416-16.903h4.5172l-0.77588 5.0593h-4.981l1.2357-5.0429z" fill="#dbdb24"/>
			<path d="m83.915 862.78h6.0453l-0.25607 9.6029h-7.0069zm-16.518 0h6.09l-2.6137 9.6029h-6.946zm17.706-9.6697h5.2236l-0.28391 6.8512h-5.8011zm-7.0656 0h5.1799l-0.12087 0.80884-0.92458 6.0424h-5.7831l0.85606-3.6165zm-7.0687 0h5.2211l-0.36293 1.3158-1.5474 5.5354h-5.8139zm14.98-7.2335h4.6197l-0.20005 5.0593h-5.016zm-12.332 0h4.5691l-1.4139 5.0593h-4.987z" fill="#257474"/>
		</g>
	</g>
</svg>
