<svg height="40" version="1.1" viewBox="0 0 128 96" xmlns="http://www.w3.org/2000/svg">
<!--	<path d="m55.813 67.376-7.8125 28.624h32l4.6875-28.624zm18.389-67.376-5.8223 21.332h23.848l3.4934-21.332z" fill="#dbdb24"/>-->
<!--	<path d="m12.5 67.376-12.5 28.624h32l9.375-28.624zm86.625 0-3.125 28.624h32v-28.624zm-70.834-36.16-10.791 24.71h27.625l8.0933-24.71zm37.391 0-6.7444 24.71h27.625l4.0466-24.71zm37.391 0-2.6978 24.71h27.625v-24.71zm-61.15-31.216-9.3157 21.332h23.848l6.9868-21.332zm64.558 0-2.3289 21.332h23.848v-21.332z" fill="#008080"/>-->
	<path d="M 57.414064,65.8828 48,96 H 80 L 85.648436,65.8828 Z M 78,0 72.703124,16.93752 h 22.125 L 98,0 Z" fill="#dbdb24"/>
	<path d="M 99.765624,65.8828 96,96 h 32 V 65.8828 Z m 4.703126,-37.64844 -2.82031,22.58596 H 128 V 28.23436 Z m -35.289062,0 -7.0625,22.58596 h 26.351564 l 4.234372,-22.58596 z m -35.296876,0 L 22.59375,50.82032 H 48.945312 L 57.414064,28.23436 Z M 108,0 105.88281,16.93752 H 128 V 0 Z M 48,0 39.53125,16.93752 H 61.648436 L 68,0 Z M 32,96 43.296876,65.8828 H 15.0625 L 0,96 Z" fill="#008080"/>
</svg>
