<svg height="40" version="1.1" viewBox="0 0 128 96" xmlns="http://www.w3.org/2000/svg">
	<path d="m55.813 67.376-7.8125 28.624h32l4.6875-28.624zm18.389-67.376-5.8223 21.332h23.848l3.4934-21.332z" fill="#dbdb24"/>
	<path d="m12.5 67.376-12.5 28.624h32l9.375-28.624zm86.625 0-3.125 28.624h32v-28.624zm-70.834-36.16-10.791 24.71h27.625l8.0933-24.71zm37.391 0-6.7444 24.71h27.625l4.0466-24.71zm37.391 0-2.6978 24.71h27.625v-24.71zm-61.15-31.216-9.3157 21.332h23.848l6.9868-21.332zm64.558 0-2.3289 21.332h23.848v-21.332z" fill="#008080"/>
</svg>
