<svg version="1.1" viewBox="0 0 96 96" xmlns="http://www.w3.org/2000/svg" xmlns:xlink="http://www.w3.org/1999/xlink">
	<defs>
		<symbol id="visionner" viewBox="0 0 32 32">
			<path d="m16 4c-4.5039 0-9.0051 0.69114-13.301 2.0449-0.26735 0.084423-0.487 0.27715-0.60547 0.53125-1.3747 2.9404-2.0938 6.178-2.0938 9.4238s0.71903 6.4835 2.0938 9.4238c0.11896 0.25331 0.33855 0.44518 0.60547 0.5293 4.2957 1.3537 8.7968 2.0469 13.301 2.0469s9.0064-0.68902 13.301-2.0469c0.26683-0.08437 0.48651-0.27598 0.60547-0.5293 1.3797-2.938 2.0938-6.178 2.0938-9.4238s-0.71903-6.4834-2.0938-9.4238c-0.11847-0.2541-0.33808-0.44697-0.60547-0.53125-4.2956-1.3539-8.7968-2.0449-13.301-2.0449zm0 2c4.1403 0 8.2735 0.64603 12.236 1.8457 1.1295 2.5638 1.7637 5.3532 1.7637 8.1543 0 2.8003-0.6329 5.5891-1.7617 8.1523-3.9634 1.2-8.0973 1.8477-12.238 1.8477s-8.2749-0.64763-12.238-1.8477c-1.1288-2.5632-1.7617-5.3521-1.7617-8.1523 0-2.8011 0.6342-5.5905 1.7637-8.1543 3.9628-1.1997 8.096-1.8457 12.236-1.8457zm-8 4v12c0 1.1046 0.89543 2 2 2h12c1.1046 0 2-0.89543 2-2v-12c0-1.1046-0.89543-2-2-2h-12c-1.1046 0-2 0.89543-2 2zm2 0h12v12h-12z" />
		</symbol>
		<symbol id="pagesimple" viewBox="0 0 32 32">
			<path d="m4 2v26a2 2 45 0 0 2 2 2 2 45 0 0 2 2h20a2 2 135 0 0 2-2v-19.414a4.8284 4.8284 67.5 0 0-1.4142-3.4142l-5.7575-5.7575a4.8285 4.8285 22.5 0 0-3.4142-1.4142l-13.414-7.703e-5a2 2 135 0 0-2 2zm2 0h14v4a2 2 45 0 0 2 2h4v20h-20zm16 1.4141 2.5859 2.5859h-2.5859z" />
		</symbol>
		<symbol id="pagesimple2" viewBox="0 0 32 32">
      <path d="m0 5v20a2 2 45 0 0 2 2 2 2 45 0 0 2 2h26a2 2 135 0 0 2-2v-13.414a4.8284 4.8284 67.5 0 0-1.4142-3.4142l-5.7575-5.7575a4.8285 4.8285 22.5 0 0-3.4142-1.4142l-19.414-8.3e-5a2 2 135 0 0-2 2zm2 0h20v4a2 2 45 0 0 2 2h4v14h-26zm22 1.4141 2.5859 2.5859h-2.5859z" />
		</symbol>
		<symbol id="tetebeche" viewBox="0 0 32 32">
			<path d="m6 0c-1.1046-6e-6 -2 0.89543-2 2v26c0 1.1046 0.89543 2 2 2 0 1.1046 0.89543 2 2 2h20c1.1046 0 2-0.89543 2-2v-19.414c0-1.2805-0.50865-2.5086-1.4141-3.4141l-5.7578-5.7578c-0.9055-0.90541-2.1336-1.4141-3.4141-1.4141zm0 2h14v4h-10l6 6 4.5859-4.5859c0.37501 0.37509 0.88366 0.58586 1.4141 0.58594h4v6a1 1 135 0 0-1 1 1 1 45 0 0 1 1v12h-20v-12a1 1 135 0 0 1-1 1 1 45 0 0-1-1zm16 1.4141 2.5859 2.5859h-2.5859zm-13 11.586a1 1 45 0 0 1 1 1 1 135 0 0 1-1 1 1 45 0 0-1-1 1 1 135 0 0-1 1zm4 0a1 1 45 0 0 1 1 1 1 135 0 0 1-1 1 1 45 0 0-1-1 1 1 135 0 0-1 1zm4 0a1 1 45 0 0 1 1 1 1 135 0 0 1-1 1 1 45 0 0-1-1 1 1 135 0 0-1 1zm4 0a1 1 45 0 0 1 1 1 1 135 0 0 1-1 1 1 45 0 0-1-1 1 1 135 0 0-1 1zm-5 3-6 6h12z" />
		</symbol>
		<symbol id="quatre" viewBox="0 0 32 32">
			<path d="m0 5v20c0 1.1046 0.89543 2 2 2 0 1.1046 0.89543 2 2 2h26c1.1046 0 2-0.89543 2-2v-13.414c0-1.2806-0.50871-2.5087-1.4142-3.4142l-5.7575-5.7575c-0.90551-0.90551-2.1336-1.4142-3.4142-1.4142l-19.414-8.2e-5c-1.1046-5e-6 -2 0.89542-2 2zm3 11a1 1 135 0 0 1-1 1 1 45 0 0-1-1 1 1 135 0 0-1 1 1 1 45 0 0 1 1zm24-2a1 1 135 0 0-1 1 1 1 45 0 0 1 1 1 1 135 0 0 1-1 1 1 45 0 0-1-1zm1 11h-12a1 1 45 0 0-1-1 1 1 135 0 0-1 1h-12v-20h12a1 1 45 0 0 1 1 1 1 135 0 0 1-1h6v4c0 1.1046 0.89543 2 2 2h4zm-4-18.586 2.5859 2.5859h-2.5859zm-10 2.5859c0 0.55228 0.44772 1 1 1s1-0.44772 1-1-0.44772-1-1-1-1 0.44772-1 1zm0 4c0 0.55228 0.44772 1 1 1s1-0.44772 1-1-0.44772-1-1-1-1 0.44772-1 1zm-8 2c0 0.55228 0.44772 1 1 1s1-0.44772 1-1-0.44772-1-1-1-1 0.44772-1 1zm4 0c0 0.55228 0.44772 1 1 1s1-0.44772 1-1-0.44772-1-1-1-1 0.44772-1 1zm8 0c0 0.55228 0.44772 1 1 1s1-0.44772 1-1-0.44772-1-1-1-1 0.44772-1 1zm4 0c0 0.55228 0.44772 1 1 1s1-0.44772 1-1-0.44772-1-1-1-1 0.44772-1 1zm-8 2c0 0.55228 0.44772 1 1 1s1-0.44772 1-1-0.44772-1-1-1-1 0.44772-1 1zm0 4c0 0.55228 0.44772 1 1 1s1-0.44772 1-1-0.44772-1-1-1-1 0.44772-1 1z" />
		</symbol>
		<symbol id="six" viewBox="0 0 32 32">
			<path d="m4 2v26c0 1.1046 0.89543 2 2 2 0 1.1046 0.89543 2 2 2h20c1.1046 0 2-0.89543 2-2v-19.414c0-1.2806-0.50871-2.5087-1.4142-3.4142l-5.7575-5.7575c-0.90551-0.90551-2.1336-1.4142-3.4142-1.4142l-13.414-7.8e-5c-1.1046-6e-6 -2 0.89542-2 2zm11 1c0 0.55228 0.44772 1 1 1s1-0.44772 1-1-0.44772-1-1-1-1 0.44772-1 1zm2 24c0-0.55228-0.44772-1-1-1s-1 0.44772-1 1 0.44772 1 1 1 1-0.44772 1-1zm-11 1v-26h14v4c0 1.1046 0.89543 2 2 2h4v20zm16-24.586 2.5859 2.5859h-2.5859zm-7 3.5859c0 0.55228 0.44772 1 1 1s1-0.44772 1-1-0.44772-1-1-1-1 0.44772-1 1zm-8 4c0 0.55228 0.44772 1 1 1s1-0.44772 1-1-0.44772-1-1-1-1 0.44772-1 1zm4 0c0 0.55228 0.44772 1 1 1s1-0.44772 1-1-0.44772-1-1-1-1 0.44772-1 1zm4 0c0 0.55228 0.44772 1 1 1s1-0.44772 1-1-0.44772-1-1-1-1 0.44772-1 1zm4 0c0 0.55228 0.44772 1 1 1s1-0.44772 1-1-0.44772-1-1-1-1 0.44772-1 1zm4 0c0 0.55228 0.44772 1 1 1s1-0.44772 1-1-0.44772-1-1-1-1 0.44772-1 1zm-8 4c0 0.55228 0.44772 1 1 1s1-0.44772 1-1-0.44772-1-1-1-1 0.44772-1 1zm-8 4c0 0.55228 0.44772 1 1 1s1-0.44772 1-1-0.44772-1-1-1-1 0.44772-1 1zm4 0c0 0.55228 0.44772 1 1 1s1-0.44772 1-1-0.44772-1-1-1-1 0.44772-1 1zm4 0c0 0.55228 0.44772 1 1 1s1-0.44772 1-1-0.44772-1-1-1-1 0.44772-1 1zm4 0c0 0.55228 0.44772 1 1 1a1 1 135 0 0 1-1c0-0.55228-0.44772-1-1-1s-1 0.44772-1 1zm4 0a1 1 45 0 0 1 1 1 1 135 0 0 1-1c0-0.55228-0.44772-1-1-1s-1 0.44772-1 1zm-8 4c0 0.55228 0.44772 1 1 1s1-0.44772 1-1-0.44772-1-1-1-1 0.44772-1 1z" />
		</symbol>
		<symbol id="neuf" viewBox="0 0 32 32">
			<path d="m2 3c-1.1046-5e-6 -2 0.89543-2 2v20c0 1.1046 0.89543 2 2 2 0 1.1046 0.89543 2 2 2h26c1.1046 0 2-0.89543 2-2v-13.414c0-1.2806-0.50856-2.5086-1.4141-3.4141l-5.7578-5.7578c-0.9055-0.9055-2.1335-1.4141-3.4141-1.4141h-19.414zm0 2h8a1 1 0 0 0 1 1 1 1 0 0 0 1-1h6a1 1 0 0 0 1 1 1 1 0 0 0 1-1h2v4a2 2 0 0 0 0.43945 1.1953 1 1 0 0 0-0.43945 0.80469 1 1 0 0 0 1 1 1 1 0 0 0 1-1h2c0 0.55228 0.44772 1 1 1s1-0.44772 1-1v8 6h-8a1 1 0 0 0-1-1 1 1 0 0 0-1 1h-6a1 1 0 0 0-1-1 1 1 0 0 0-1 1h-8v-6-8-6zm0 6c0 0.55228 0.44772 1 1 1s1-0.44772 1-1-0.44772-1-1-1-1 0.44772-1 1zm0 8c0 0.55228 0.44772 1 1 1s1-0.44772 1-1-0.44772-1-1-1-1 0.44772-1 1zm26 0c0-0.55228-0.44772-1-1-1s-1 0.44772-1 1 0.44772 1 1 1 1-0.44772 1-1zm-4-12.586 2.5859 2.5859h-2.5859v-2.5859zm-13 1.5859c-0.55228 0-1 0.44772-1 1s0.44772 1 1 1 1-0.44772 1-1-0.44772-1-1-1zm8 0c-0.55228 0-1 0.44772-1 1s0.44772 1 1 1 1-0.44772 1-1-0.44772-1-1-1zm-12 2c-0.55228 0-1 0.44772-1 1s0.44772 1 1 1 1-0.44772 1-1-0.44772-1-1-1zm8 0c-0.55228 0-1 0.44772-1 1s0.44772 1 1 1 1-0.44772 1-1-0.44772-1-1-1zm-4 2c-0.55228 0-1 0.44772-1 1s0.44772 1 1 1 1-0.44772 1-1-0.44772-1-1-1zm8 0c-0.55228 0-1 0.44772-1 1s0.44772 1 1 1 1-0.44772 1-1-0.44772-1-1-1zm-8 4c-0.55228 0-1 0.44772-1 1s0.44772 1 1 1 1-0.44772 1-1-0.44772-1-1-1zm8 0c-0.55228 0-1 0.44772-1 1s0.44772 1 1 1 1-0.44772 1-1-0.44772-1-1-1zm-12 2c-0.55228 0-1 0.44772-1 1s0.44772 1 1 1 1-0.44772 1-1-0.44772-1-1-1zm8 0c-0.55228 0-1 0.44772-1 1s0.44772 1 1 1 1-0.44772 1-1-0.44772-1-1-1zm8 0c-0.55228 0-1 0.44772-1 1s0.44772 1 1 1 1-0.44772 1-1-0.44772-1-1-1zm-12 2c-0.55228 0-1 0.44772-1 1s0.44772 1 1 1 1-0.44772 1-1-0.44772-1-1-1zm8 0c-0.55228 0-1 0.44772-1 1s0.44772 1 1 1 1-0.44772 1-1-0.44772-1-1-1z" />
		</symbol>
	</defs>
	<use x="0" y="0" xlink:href="#visionner" width="32" height="32"></use>
	<use x="32" y="0" xlink:href="#pagesimple" width="32" height="32"></use>
	<use x="64" y="0" xlink:href="#pagesimple2" width="32" height="32"></use>
	<use x="0" y="32" xlink:href="#tetebeche" width="32" height="32"></use>
	<use x="32" y="32" xlink:href="#quatre" width="32" height="32"></use>
	<use x="64" y="32" xlink:href="#six" width="32" height="32"></use>
	<use x="0" y="64" xlink:href="#neuf" width="32" height="32"></use>
	<use x="64" y="64" xlink:href="#test" width="32" height="32"></use>
</svg>